<svg xmlns="http://www.w3.org/2000/svg" xmlns:xlink="http://www.w3.org/1999/xlink" width="720" height="560" viewBox="0 0 720 560">
  <defs>
    <clipPath id="clip-Web_1920_1">
      <rect width="720" height="560"/>
    </clipPath>
  </defs>
  <g id="Web_1920_1" data-name="Web 1920 – 1" clip-path="url(#clip-Web_1920_1)">
    <rect width="720" height="560" fill="#fff"/>
    <path id="Path_1" data-name="Path 1" d="M305.75,440.6s-21.35-2.779-7.19,4.707c11.313,5.981,46.017,32,68.081,61.993,3.388,4.605,6.642,9.231,9.945,14.407,1.674,2.623,3.849,5.72,4.985,8.67,5.683,14.757,13.408,28.821,17.739,42.007,2.039,6.206,4.043,11.91,5.37,17.314a137.63,137.63,0,0,1,3.643,21.046l44.745-25.758s52.682-34.18,59.361-41.075,7.594-15.107,23.97-36.223,46.072-51.572,59.431-58.251,17.869-12.289,8.666-10.4-57.867,9.7-88.364,29.091c-17.322,11.015-25.057,16.742-32.333,21.652-5.091,3.438-10.209,6.6-20.52,7.318-16.277,1.13-25.706,2.112-33.69-.465-3.3-1.064-6.361-3.359-9.839-6.047-10.939-8.453-41.775-27.914-51.885-32.057s-31.16-12.762-37.458-13.922S305.75,440.6,305.75,440.6Z" transform="translate(-97 -342)" fill="#f34f4f"/>
    <ellipse id="Ellipse_1" data-name="Ellipse 1" cx="45" cy="46" rx="45" ry="46" transform="translate(310 47)" fill="#f34f4f"/>
    <path id="Path_2" data-name="Path 2" d="M540.173,530.747s18.1-29.519,12.282,7.541-32.751,57.96-32.751,57.96-29.519,25.641-32.32,26.933-16.429,12.982-18.584,15.783-9.911,8.4-9.911,15.729.646,8.834,1.724,11.635,25.21,37.491,63.132-4.956,50.2-65.125,50.2-65.125,58.715-89.688,69.488-104.555,26.772-35.336,34.313-43.524,11.2-11.42,11.2-11.42,28.657-27.8,12.712,4.956-53,99.114-53,99.114l-55,101.377s-22.624,46.379-64.209,75.252-77.945,51.6-85.917,56.991-44.386,32.859-54.728,49.88-20.469,29.2-24.779,42.124-7.972,22.193-7.972,22.193-6.679-35.552-7.541-51.065-6.679-71.8-1.077-101.323,19.284-76.329,59.576-106.71,80.046-52.681,86.294-57.853,30.65-23.163,38.191-30.866S540.173,530.747,540.173,530.747Z" transform="translate(-98 -343)" fill="#46e934"/>
    <path id="Path_4" data-name="Path 4" d="M401.444,324.867l-78.956-20.961,79.655-24.814,78.723,24.814Z" transform="translate(-46.861 -252.729)" fill="#f34f4f"/>
    <path id="Path_7" data-name="Path 7" d="M479.808,341.311l-79.466,21.662L321.43,341.311v-1.249l78.912,21.155,79.466-21.186Z" transform="translate(-45.804 -288.955)" fill="#979393"/>
    <path id="Path_8" data-name="Path 8" d="M-459.484,353.729s-10.583,5.6-10.3,16.76-10.152,14.078-10.152,14.078l1.9,5.842,6.417-4.405s6.656-5.746,6.608-9.673-.766-9.1,2.346-12.354,7.374-7.518,7.71-7.9S-459.484,353.729-459.484,353.729Z" transform="translate(753 -300)" fill="#f34f4f"/>
    <path id="Path_9" data-name="Path 9" d="M-478.726,384.836l-12.761-.374,4.918,15.065,10.271-11.579Z" transform="translate(755 -301)" fill="#f34f4f"/>
  </g>
</svg>
