<svg xmlns="http://www.w3.org/2000/svg" xmlns:xlink="http://www.w3.org/1999/xlink" width="276" height="286" viewBox="0 0 276 286"><defs><clipPath id="a"><ellipse cx="138" cy="143" rx="138" ry="143" transform="translate(486 172)" fill="#0cd5ac"/></clipPath></defs><g transform="translate(-469 -209)"><ellipse cx="138" cy="143" rx="138" ry="143" transform="translate(469 209)" fill="#0cd5ac"/><g transform="translate(-17 37)" clip-path="url(#a)"><path d="M501.3,476.451s-4.734-118.343,91.361-115.5,83.787,115.5,83.787,115.5Z" transform="translate(36 -18)" fill="rgba(125,123,123,0.65)"/><ellipse cx="45" cy="46" rx="45" ry="46" transform="translate(582 249)" fill="rgba(125,123,123,0.87)"/><path d="M401.444,324.867l-78.956-20.961,79.655-24.814,78.723,24.814Z" transform="translate(225.139 -47.729)" fill="#bcb8b8"/><path d="M479.808,341.311l-79.466,21.662L321.43,341.311v-1.249l78.912,21.155,79.466-21.186Z" transform="translate(226.196 -83.955)" fill="#979393"/><path d="M-459.484,353.729s-10.583,5.6-10.3,16.76-10.152,14.078-10.152,14.078l1.9,5.842,6.417-4.405s6.656-5.746,6.608-9.673-.766-9.1,2.346-12.354,7.374-7.518,7.71-7.9S-459.484,353.729-459.484,353.729Z" transform="translate(1025 -95)" fill="rgba(204,165,165,0.65)"/><path d="M-478.726,384.836l-12.761-.374,4.918,15.065,10.271-11.579Z" transform="translate(1026 -95)" fill="#7d7b7b"/><path d="M593.749,348.871,624.6,387l34.024-36.888S637.84,342.136,617.985,344,593.749,348.871,593.749,348.871Z" transform="translate(1.702 -1.316)" fill="#fff"/></g></g></svg>